<svg xmlns="http://www.w3.org/2000/svg" width="920" height="240" viewBox="0 0 920 240" fill="none">
  <defs>
    <linearGradient id="g1" x1="0" y1="0" x2="1" y2="1">
      <stop offset="0" stop-color="#0B1B3A"/>
      <stop offset="1" stop-color="#1D4ED8"/>
    </linearGradient>
    <linearGradient id="g2" x1="0" y1="0" x2="0" y2="1">
      <stop offset="0" stop-color="#FACC15"/>
      <stop offset="1" stop-color="#EAB308"/>
    </linearGradient>
    <filter id="s" x="-20%" y="-20%" width="140%" height="140%" color-interpolation-filters="sRGB">
      <feDropShadow dx="0" dy="6" stdDeviation="10" flood-color="#000000" flood-opacity="0.25"/>
    </filter>
  </defs>

  <g filter="url(#s)">
    <rect x="24" y="24" width="192" height="192" rx="44" fill="url(#g1)"/>
    <rect x="24" y="24" width="192" height="192" rx="44" stroke="#1F2937" stroke-width="2" opacity="0.55"/>
  </g>

  <g transform="translate(24,24)">
    <path d="M96 24c-18 16-40 22-64 24v72c0 42 28 78 64 88c36-10 64-46 64-88V48c-24-2-46-8-64-24Z" fill="#0B1220" opacity="0.35"/>
    <path d="M96 28c-16 14-36 20-58 22v70c0 38 25 70 58 80c33-10 58-42 58-80V50c-22-2-42-8-58-22Z" fill="#0B1220" opacity="0.38"/>
    <path d="M96 34c-14 12-32 17-52 19v67c0 32 21 59 52 69c31-10 52-37 52-69V53c-20-2-38-7-52-19Z" fill="#0B1220" opacity="0.22"/>

    <path d="M78 160l20-46H82l32-62l-10 50h16l-36 58Z" fill="url(#g2)"/>
    <path d="M68 76h56" stroke="#FACC15" stroke-width="6" stroke-linecap="round" opacity="0.6"/>
    <path d="M64 92h64" stroke="#93C5FD" stroke-width="6" stroke-linecap="round" opacity="0.6"/>
  </g>

  <g transform="translate(250,58)">
    <text x="0" y="64" font-size="64" font-family="ui-sans-serif, system-ui, -apple-system, Segoe UI, Roboto, Helvetica, Arial, 'Apple Color Emoji', 'Segoe UI Emoji'" font-weight="800" fill="#0B1220">
      SG-SST-IA
    </text>
    <text x="2" y="112" font-size="28" font-family="ui-sans-serif, system-ui, -apple-system, Segoe UI, Roboto, Helvetica, Arial, 'Apple Color Emoji', 'Segoe UI Emoji'" font-weight="600" fill="#334155">
      Analítica Predictiva
    </text>
    <rect x="0" y="128" width="238" height="8" rx="4" fill="#FACC15"/>
    <rect x="246" y="128" width="82" height="8" rx="4" fill="#1D4ED8"/>
  </g>
</svg>
